<?xml version="1.0" standalone="no"?>
<!DOCTYPE svg PUBLIC "-//W3C//DTD SVG 20010904//EN"
 "http://www.w3.org/TR/2001/REC-SVG-20010904/DTD/svg10.dtd">
<svg version="1.0" xmlns="http://www.w3.org/2000/svg"
 width="200.000000pt" height="200.000000pt" viewBox="0 0 200.000000 200.000000"
 preserveAspectRatio="xMidYMid meet">
<metadata>
Created by potrace 1.16, written by Peter Selinger 2001-2019
</metadata>
<g transform="translate(0.000000,200.000000) scale(0.100000,-0.100000)"
fill="#3b1a4f" stroke="none">
<path d="M482 1657 c-48 -18 -99 -63 -124 -110 -21 -38 -23 -58 -26 -219 l-4
-178 63 -80 c34 -45 75 -88 91 -96 21 -11 28 -21 26 -37 -6 -42 -68 -28 -68
15 0 27 -71 118 -90 115 -11 -2 -16 -18 -18 -57 -3 -49 1 -61 28 -98 17 -24
42 -47 55 -52 29 -11 35 -54 9 -64 -22 -9 -42 10 -46 42 -2 19 -9 27 -23 27
-19 0 -20 -8 -23 -104 -3 -105 3 -127 29 -116 8 4 92 107 188 231 96 123 179
224 185 224 6 0 67 -72 136 -160 78 -100 131 -160 142 -160 10 0 18 5 18 11 0
7 -29 72 -65 146 -36 74 -65 139 -65 146 0 20 170 232 189 235 13 2 82 -81
255 -302 289 -371 301 -384 315 -370 8 7 11 52 9 130 -3 111 -4 119 -23 119
-14 0 -21 -8 -23 -25 -7 -50 -54 -70 -67 -30 -7 23 10 50 31 50 7 0 29 21 49
46 35 47 46 96 24 110 -14 9 -38 -16 -44 -46 -6 -31 -19 -43 -41 -38 -12 2
-20 13 -22 30 -3 22 2 29 21 33 13 4 40 28 61 55 l36 48 -2 268 -3 269 -575 2
c-423 1 -584 -2 -608 -10z"/>
</g>
</svg>
